<svg width="50" height="40" viewBox="0 0 50 40" fill="none" xmlns="http://www.w3.org/2000/svg">
<path d="M30.7651 0.535207C22.6604 -0.869606 15.267 1.53187 9.69288 5.39802C0.646424 11.6726 -1.93994 22.3004 1.40005 32.619C1.68707 33.5057 2.66201 33.9663 3.52532 33.6337L11.0734 30.726C8.22431 22.7666 11.7716 13.7422 19.5438 9.95567C26.7659 6.43737 35.4578 9.43394 38.9763 16.6566C42.0289 22.9221 39.4291 30.4633 33.1628 33.5161C27.6194 36.2168 20.8439 33.9309 18.8152 28.2298C18.415 27.1052 19.0023 25.8692 20.1269 25.469C21.2515 25.0689 22.4875 25.656 22.8876 26.7807C24.0417 30.0244 28.041 31.203 31.2696 29.6302C35.3875 27.6241 37.097 22.668 35.0905 18.5497C32.6186 13.4755 26.5117 11.3691 21.4369 13.8415C15.4373 16.7643 12.8256 23.8883 15.4127 29.9607C18.4586 35.8465 24.6019 39.8698 31.6863 39.8698C41.8007 39.8698 50 31.6704 50 21.5561C50 11.4417 43.6245 2.48033 30.7651 0.535207Z" fill="#00E1F2"/>
</svg>
