<svg width="20" height="20" viewBox="0 0 20 20" fill="none" xmlns="http://www.w3.org/2000/svg">
<path d="M8.641 11.359L11.0208 13.7388C11.2339 13.952 11.5615 14.0001 11.8269 13.8576L14.6789 12.3266C14.8898 12.2133 15.1448 12.2187 15.3507 12.3411L19.5118 14.8104C19.8088 14.9865 19.9282 15.355 19.7893 15.6709C19.4337 16.4801 18.7865 17.9632 18.5294 18.619C18.4753 18.7571 18.3948 18.8836 18.2828 18.9805C15.5095 21.3844 9.99195 18.4553 5.76865 14.232C1.54469 10.0085 -1.38433 4.49094 1.01954 1.71771C1.11669 1.60568 1.24317 1.52515 1.38102 1.47111C2.03658 1.214 3.51991 0.566756 4.32908 0.211186C4.64505 0.0722401 5.01353 0.191712 5.18967 0.48864L7.65897 4.6498C7.78107 4.8557 7.78654 5.11062 7.67341 5.32155L6.14238 8.17312C5.99993 8.43854 6.04807 8.7661 6.26119 8.97922L8.641 11.359Z" fill="#00E1F2"/>
</svg>
