<svg width="174" height="22" viewBox="0 0 174 22" fill="none" xmlns="http://www.w3.org/2000/svg">
<path d="M17.17 17.34H8.28996L6.63996 21.42H0.579956L9.84996 0.42H15.7L25 21.42H18.82L17.17 17.34ZM15.43 12.96L12.73 6.24L10.03 12.96H15.43Z" fill="white"/>
<path d="M45.6439 21.42L45.5839 10.29L40.1839 19.35H37.5439L32.1739 10.59V21.42H26.6839V0.42H31.5739L38.9539 12.54L46.1539 0.42H51.0439L51.1039 21.42H45.6439Z" fill="white"/>
<path d="M74.267 21.42L74.207 10.29L68.807 19.35H66.167L60.797 10.59V21.42H55.307V0.42H60.197L67.577 12.54L74.777 0.42H79.667L79.727 21.42H74.267Z" fill="white"/>
<path d="M94.52 21.84C92.3 21.84 90.3 21.37 88.52 20.43C86.76 19.49 85.37 18.19 84.35 16.53C83.35 14.87 82.85 13 82.85 10.92C82.85 8.84 83.35 6.97 84.35 5.31C85.37 3.65 86.76 2.35 88.52 1.41C90.3 0.47 92.3 0 94.52 0C96.74 0 98.73 0.47 100.49 1.41C102.27 2.35 103.66 3.65 104.66 5.31C105.68 6.97 106.19 8.84 106.19 10.92C106.19 13 105.68 14.87 104.66 16.53C103.66 18.19 102.27 19.49 100.49 20.43C98.73 21.37 96.74 21.84 94.52 21.84ZM94.52 16.92C95.58 16.92 96.54 16.67 97.4 16.17C98.26 15.67 98.94 14.97 99.44 14.07C99.94 13.15 100.19 12.1 100.19 10.92C100.19 9.74 99.94 8.7 99.44 7.8C98.94 6.88 98.26 6.17 97.4 5.67C96.54 5.17 95.58 4.92 94.52 4.92C93.46 4.92 92.5 5.17 91.64 5.67C90.78 6.17 90.1 6.88 89.6 7.8C89.1 8.7 88.85 9.74 88.85 10.92C88.85 12.1 89.1 13.15 89.6 14.07C90.1 14.97 90.78 15.67 91.64 16.17C92.5 16.67 93.46 16.92 94.52 16.92Z" fill="white"/>
<path d="M109.301 0.42H115.241V16.71H125.261V21.42H109.301V0.42Z" fill="white"/>
<path d="M127.612 0.42H133.552V21.42H127.612V0.42Z" fill="white"/>
<path d="M142.248 5.13H135.798V0.42H154.608V5.13H148.188V21.42H142.248V5.13Z" fill="white"/>
<path d="M173.681 16.83V21.42H156.821V0.42H173.291V5.01H162.701V8.55H172.031V12.99H162.701V16.83H173.681Z" fill="white"/>
</svg>
